<svg viewBox="0 0 48 48" xml:space="preserve" xmlns="http://www.w3.org/2000/svg">
    <path d="M45.5 36.415h-43c-.275 0-.5.225-.5.5v2.836c0 .275.225.5.5.5h43a.5.5 0 0 0 .5-.5v-2.836a.5.5 0 0 0-.5-.5zm-.5 2.836H3v-1.836h42v1.836zM4.672 33.084h38.656a.5.5 0 0 0 .5-.5v-2.835a.5.5 0 0 0-.5-.5H4.672a.5.5 0 0 0-.5.5v2.835c0 .276.222.5.5.5zm.5-2.835h37.656v1.834H5.172v-1.834zM6.844 25.917h34.314c.275 0 .5-.225.5-.5v-2.836c0-.275-.225-.5-.5-.5H6.844a.5.5 0 0 0-.5.5v2.836c0 .277.222.5.5.5zm.5-2.836h33.314v1.836H7.344v-1.836zM9.016 18.751h29.97c.275 0 .5-.225.5-.5v-2.836c0-.275-.225-.5-.5-.5H9.016a.5.5 0 0 0-.5.5v2.836a.5.5 0 0 0 .5.5zm.5-2.836h28.97v1.836H9.516v-1.836zM11.186 11.584h25.628c.275 0 .5-.225.5-.5V8.249c0-.275-.225-.5-.5-.5H11.186c-.275 0-.5.225-.5.5v2.835a.5.5 0 0 0 .5.5zm.5-2.836h24.628v1.834H11.686V8.748z" fill="#ffffff" class="fill-000000"></path>
</svg>